<svg xmlns="http://www.w3.org/2000/svg" xmlns:xlink="http://www.w3.org/1999/xlink" width="873.56" height="795" viewBox="0 0 873.56 795"><defs><style>.a,.k{opacity:0.5;}.b{fill:url(#a);}.c{fill:#fff;}.d{fill:url(#c);}.e{fill:#9f9f9f;}.f{fill:#47cf73;}.g{fill:url(#g);}.h,.i,.j,.k{fill:none;stroke:#47cf73;stroke-miterlimit:10;stroke-width:5px;}.i{stroke-dasharray:11.54 11.54;}.j{stroke-dasharray:11.45 11.45;}.k{stroke-dasharray:12;}.l{fill:#fafafa;}.m{opacity:0.05;}.n{fill:#f5f5f5;}</style><linearGradient id="a" x1="0.5" y1="1" x2="0.5" gradientUnits="objectBoundingBox"><stop offset="0" stop-color="gray" stop-opacity="0.251"/><stop offset="0.54" stop-color="gray" stop-opacity="0.122"/><stop offset="1" stop-color="gray" stop-opacity="0.102"/></linearGradient><linearGradient id="c" xlink:href="#a"/><linearGradient id="g" xlink:href="#a"/></defs><g transform="translate(-694 -1382)"><g class="a" transform="translate(694 1382)"><rect class="b" width="393" height="543" transform="translate(244.5 55)"/></g><rect class="c" width="383" height="531" transform="translate(943.5 1441)"/><rect class="b" width="190" height="46.02" transform="translate(1040.5 1426.98)"/><path class="d" d="M604.72,52.5c-14.67,0-26.56,12.18-26.56,27.2s11.89,27.2,26.56,27.2,26.56-12.18,26.56-27.2S619.39,52.5,604.72,52.5Zm0,42.89A15.69,15.69,0,1,1,620,79.7a15.51,15.51,0,0,1-15.28,15.69Z" transform="translate(530.78 1329.5)"/><rect class="e" width="186" height="44" transform="translate(1042.5 1427)"/><path class="e" d="M604.72,54.5a26,26,0,1,0,26,26A26,26,0,0,0,604.72,54.5Zm0,41a15,15,0,1,1,15-15A15,15,0,0,1,604.72,95.5Z" transform="translate(530.78 1329.5)"/><rect class="b" width="82" height="82" transform="translate(961.5 1527)"/><rect class="b" width="82" height="82" transform="translate(961.78 1689.5)"/><rect class="b" width="82" height="82" transform="translate(962.06 1850)"/><rect class="f" width="76" height="76" transform="translate(964.5 1530)"/><rect class="e" width="76" height="76" transform="translate(964.5 1691)"/><rect class="e" width="76" height="76" transform="translate(964.5 1852)"/><rect class="e" width="104.17" height="7.27" transform="translate(1090.5 1553.46)"/><rect class="e" width="172" height="7.27" transform="translate(1090.5 1564.37)"/><rect class="e" width="159.89" height="7.27" transform="translate(1090.5 1575.27)"/><rect class="e" width="104.17" height="7.27" transform="translate(1090.5 1714.46)"/><rect class="e" width="172" height="7.27" transform="translate(1090.5 1725.37)"/><rect class="e" width="159.89" height="7.27" transform="translate(1090.5 1736.27)"/><rect class="e" width="104.17" height="7.27" transform="translate(1090.5 1875.46)"/><rect class="e" width="172" height="7.27" transform="translate(1090.5 1886.37)"/><rect class="e" width="159.89" height="7.27" transform="translate(1090.5 1897.27)"/><path class="g" d="M291.25,181.47l13.8,12.66,19.55-28.75,6.9,5.75-26.45,34.5L285.5,183.78Z" transform="translate(694 1382)"/><path class="c" d="M293.5,182l12,11,17-25,6,5-23,30-17-19Z" transform="translate(694 1382)"/><path class="c" d="M293.5,344l12,11,17-25,6,5-23,30-17-19Z" transform="translate(694 1382)"/><path class="c" d="M293.5,506l12,11,17-25,6,5-23,30-17-19Z" transform="translate(694 1382)"/><g class="a" transform="translate(694 1382)"><line class="h" x2="6" transform="translate(651 351)"/><line class="i" x2="132.69" transform="translate(668.54 351)"/><path class="h" d="M807,351h6v-6"/><line class="j" y1="108.82" transform="translate(813 224.73)"/><line class="h" y1="6" transform="translate(813 213)"/></g><path class="k" d="M231.5,182.5H97.5v126" transform="translate(694 1382)"/><path class="k" d="M308.5,611.5v72h200" transform="translate(694 1382)"/><g class="a" transform="translate(694 1382)"><path class="b" d="M873.56,107.09,796.5,42l-75.86,64.95-.68-.38v.52h-.52l.52.29V193H873.04l-.93-.52h1.45Z"/></g><path class="c" d="M870.5,189.5h-147v-82l73-62.5,74,62.5Z" transform="translate(694 1382)"/><path class="e" d="M722.5,107.5l73,41,74-41" transform="translate(694 1382)"/><g class="a" transform="translate(694 1382)"><path class="b" d="M797.02,147.47,752,176V69h89v54.42Z"/></g><path class="l" d="M797,148l-43,28V71h85v53.4Z" transform="translate(694 1382)"/><path class="m" d="M723,189H870L723,107Z" transform="translate(694 1382)"/><path class="n" d="M723,190H870L723,108Z" transform="translate(694 1382)"/><rect class="c" width="62" height="4" transform="translate(1459 1469)"/><rect class="c" width="62" height="4" transform="translate(1459 1477)"/><rect class="f" width="62" height="4" transform="translate(1459 1485)"/><rect class="c" width="62" height="4" transform="translate(1459 1493)"/><rect class="f" width="62" height="4" transform="translate(1459 1501)"/><path class="m" d="M839,125v-2l-43.74,24.31,1.19.66Z" transform="translate(694 1382)"/><g class="a" transform="translate(694 1382)"><rect class="b" width="173.95" height="175" transform="translate(541.02 620)"/></g><rect class="n" width="166" height="167" transform="translate(1239 2006)"/><rect class="c" width="146" height="128" transform="translate(1250 2011)"/><path class="e" d="M865.22,768.5c-40.35,0-73-10.29-73-23-40.35,0-73,8.95-73,20v48h146Z" transform="translate(530.78 1329.5)"/><circle class="f" cx="15" cy="15" r="15" transform="translate(1357 2024)"/><g class="a" transform="translate(694 1382)"><rect class="b" width="204" height="144.5" transform="translate(0 319.75)"/></g><rect class="c" width="192" height="136" transform="translate(700 1706)"/><path class="e" d="M269.17,410.84a37.294,37.294,0,0,0-4.8.32l4.8,36.68-36.91-2.46c-.05.81-.09,1.63-.09,2.46a37,37,0,1,0,37-37Z" transform="translate(530.78 1329.5)"/><path class="f" d="M256.37,404.16a37,37,0,0,0-32.11,34.22l36.91,2.46Z" transform="translate(530.78 1329.5)"/></g></svg>